<svg viewBox="0 0 100 100" xmlns="http://www.w3.org/2000/svg" xmlns:xlink="http://www.w3.org/1999/xlink" width="100" height="100">
<defs>



<g id="bg" fill="#ff9311" class="bg"><path d="M0,50a50,50 0 1,0 100,0a50,50 0 1,0 -100,0"/></g><g id="fg"><path opacity="0.1" d="M85.355,14.645l-70.711,70.71c19.526,19.526,51.185,19.526,70.711,0 C104.882,65.83,104.882,34.171,85.355,14.645z"/><path opacity="0.1" d="M50,0v100c27.614,0,50-22.386,50-50S77.614,0,50,0z"/></g> 
 <path fill="#002a4a" id="i-431" d="M12.2,19.199l1.2,1.6c-1.05,0.791-2.1,1.07-3.12,1.07c-1.34,0-2.63-0.48-3.83-0.93c-2.16-0.811-3.56-1.25-5.05-0.141 l-1.2-1.6c2.44-1.83,4.84-0.93,6.95-0.141C9.31,19.879,10.71,20.318,12.2,19.199z M7.15,14.199C5.04,13.398,2.64,12.5,0.2,14.33 l1.2,1.6c1.49-1.111,2.89-0.67,5.05,0.139C7.65,16.52,8.94,17,10.28,17c1.02,0,2.07-0.281,3.12-1.07l-1.2-1.6 C10.71,15.449,9.31,15.01,7.15,14.199z M36.8,12c-2.21,0-4,1.789-4,4c0,2.209,1.79,4,4,4c2.209,0,4-1.791,4-4 C40.8,13.789,39.009,12,36.8,12z M7.15,9.93C5.04,9.139,2.64,8.24,0.2,10.068l1.2,1.602c1.49-1.121,2.89-0.68,5.05,0.129 c1.2,0.451,2.49,0.941,3.83,0.941c1.02,0,2.07-0.281,3.12-1.07l-1.2-1.602C10.71,11.18,9.31,10.74,7.15,9.93z M47.8,16 c0,4.559-2.51,8.299-6.291,10C40.67,28.479,37.8,37.299,37.8,42v1H24.5l1.57-1.682c0.03-0.029,2.83-3.068,4.81-7.709 c1.629-3.811,1.221-6.311,1.051-7.029c-6.87-1.012-15-3.49-15.42-3.621L15.8,22.74V9.26l0.71-0.221C17.04,8.879,29.73,5,36.8,5 C42.66,5,47.8,10.139,47.8,16z M42.8,16c0-3.311-2.689-6-6-6c-3.31,0-6,2.689-6,6c0,3.309,2.69,6,6,6C40.11,22,42.8,19.309,42.8,16z "/> 
</defs>
<use x="0" y="0" class="bg" xlink:href="#bg"/>
<use x="26" y="26" xlink:href="#i-431"/>
<use x="0" y="0" xlink:href="#fg"/>
</svg>